<svg xmlns="http://www.w3.org/2000/svg" version="1.0" width="51.000000pt" height="50.000000pt" viewBox="0 0 51.000000 50.000000" preserveAspectRatio="xMidYMid meet">

<g transform="translate(0.000000,50.000000) scale(0.100000,-0.100000)" fill="green" stroke="none">
<path d="M220 490 c-84 -17 -145 -63 -180 -137 -58 -124 1 -275 128 -329 48 -20 137 -20 185 0 50 22 111 82 132 131 21 50 21 139 1 187 -44 104 -161 169 -266 148z m129 -61 c37 -27 61 -76 61 -125 0 -38 15 -53 23 -23 9 34 27 11 27 -33 0 -25 -7 -49 -17 -60 -18 -20 -53 -24 -70 -7 -8 8 -17 7 -34 -5 -30 -21 -127 -22 -156 -1 -14 10 -24 12 -28 5 -9 -14 -58 -13 -73 2 -14 14 -16 118 -2 118 6 0 10 -9 10 -20 0 -11 5 -20 10 -20 6 0 10 17 10 39 0 71 32 120 100 153 29 15 106 2 139 -23z m-176 -302 c7 7 156 3 210 -6 5 0 7 -13 5 -28 -3 -31 11 -29 -166 -22 -68 2 -75 5 -83 27 -11 29 -3 47 15 33 7 -6 16 -8 19 -4z"/>
<path d="M204 356 c-8 -21 -1 -49 14 -54 8 -2 12 8 12 32 0 36 -16 49 -26 22z"/>
<path d="M290 335 c0 -25 4 -35 13 -32 6 2 12 16 12 32 0 16 -6 30 -12 33 -9 2 -13 -8 -13 -33z"/>
<path d="M203 236 c17 -16 40 -26 57 -26 17 0 40 10 57 26 21 19 23 24 8 18 -26 -11 -104 -11 -130 0 -15 6 -13 1 8 -18z"/>
</g>
</svg>